<svg width="11" height="11" viewBox="0 0 11 11" fill="none" xmlns="http://www.w3.org/2000/svg">
<path d="M3.88206 8.0068C3.74782 8.14105 3.74782 8.3587 3.88206 8.49294C4.0163 8.62718 4.23395 8.62718 4.3682 8.49294L3.88206 8.0068ZM6.87513 5.49987L7.1182 5.74294C7.25244 5.6087 7.25244 5.39105 7.1182 5.2568L6.87513 5.49987ZM4.3682 2.5068C4.23395 2.37256 4.0163 2.37256 3.88206 2.5068C3.74782 2.64105 3.74782 2.8587 3.88206 2.99294L4.3682 2.5068ZM4.3682 8.49294L7.1182 5.74294L6.63206 5.2568L3.88206 8.0068L4.3682 8.49294ZM7.1182 5.2568L4.3682 2.5068L3.88206 2.99294L6.63206 5.74294L7.1182 5.2568Z" fill="#6D7D93"/>
</svg>
