<svg width="11" height="11" viewBox="0 0 11 11" fill="none" xmlns="http://www.w3.org/2000/svg">
<g opacity="0.4" clip-path="url(#clip0_103_1334)">
<path d="M4.125 10.0832C4.37813 10.0832 4.58333 9.878 4.58333 9.62487C4.58333 9.37174 4.37813 9.16654 4.125 9.16654V10.0832ZM1.375 8.70821H0.916667H1.375ZM2.29167 1.37487V0.916539V1.37487ZM4.125 1.83321C4.37813 1.83321 4.58333 1.628 4.58333 1.37487C4.58333 1.12174 4.37813 0.916539 4.125 0.916539V1.83321ZM4.125 9.16654H2.29167V10.0832H4.125V9.16654ZM2.29167 9.16654C2.17011 9.16654 2.05353 9.11825 1.96758 9.0323L1.31939 9.68048C1.57726 9.93834 1.92699 10.0832 2.29167 10.0832V9.16654ZM1.96758 9.0323C1.88162 8.94634 1.83333 8.82976 1.83333 8.70821H0.916667C0.916667 9.07288 1.06153 9.42261 1.31939 9.68048L1.96758 9.0323ZM1.83333 8.70821V2.29154H0.916667V8.70821H1.83333ZM1.83333 2.29154C1.83333 2.16998 1.88162 2.0534 1.96758 1.96745L1.31939 1.31927C1.06153 1.57713 0.916667 1.92687 0.916667 2.29154H1.83333ZM1.96758 1.96745C2.05353 1.88149 2.17011 1.83321 2.29167 1.83321V0.916539C1.92699 0.916539 1.57726 1.0614 1.31939 1.31927L1.96758 1.96745ZM2.29167 1.83321H4.125V0.916539H2.29167V1.83321Z" fill="black"/>
<path d="M7.0095 7.46738C6.83051 7.64637 6.83051 7.93658 7.0095 8.11557C7.18849 8.29456 7.47869 8.29456 7.65768 8.11557L7.0095 7.46738ZM9.62526 5.49981L9.94935 5.8239C10.1283 5.64491 10.1283 5.35471 9.94935 5.17572L9.62526 5.49981ZM7.65768 2.88405C7.47869 2.70506 7.18849 2.70506 7.0095 2.88405C6.83051 3.06304 6.83051 3.35324 7.0095 3.53223L7.65768 2.88405ZM7.65768 8.11557L9.94935 5.8239L9.30117 5.17572L7.0095 7.46738L7.65768 8.11557ZM9.94935 5.17572L7.65768 2.88405L7.0095 3.53223L9.30117 5.8239L9.94935 5.17572Z" fill="black"/>
<path d="M9.625 5.95827C9.87813 5.95827 10.0833 5.75307 10.0833 5.49994C10.0833 5.24681 9.87813 5.0416 9.625 5.0416V5.95827ZM4.125 5.0416C3.87187 5.0416 3.66667 5.24681 3.66667 5.49994C3.66667 5.75307 3.87187 5.95827 4.125 5.95827V5.0416ZM9.625 5.0416H4.125V5.95827H9.625V5.0416Z" fill="black"/>
</g>
<defs>
<clipPath id="clip0_103_1334">
<rect width="10.5" height="10.5" fill="white" transform="scale(1.04762)"/>
</clipPath>
</defs>
</svg>
