<svg width="4" height="5" viewBox="0 0 4 5" fill="none" xmlns="http://www.w3.org/2000/svg">
<path d="M1.44633 4.77273C1.44633 4.89825 1.54808 5 1.6736 5C1.79912 5 1.90087 4.89825 1.90087 4.77273H1.44633ZM1.83431 0.0665665C1.74555 -0.0221892 1.60165 -0.0221892 1.51289 0.0665665L0.0665387 1.51292C-0.0222168 1.60168 -0.0222168 1.74558 0.0665387 1.83433C0.155294 1.92309 0.299195 1.92309 0.387951 1.83433L1.6736 0.548685L2.95925 1.83433C3.048 1.92309 3.19191 1.92309 3.28066 1.83433C3.36942 1.74558 3.36942 1.60168 3.28066 1.51292L1.83431 0.0665665ZM1.90087 4.77273L1.90087 0.227273H1.44633L1.44633 4.77273H1.90087Z" fill="#6D7D93"/>
</svg>
