<svg width="6" height="6" viewBox="0 0 6 6" fill="none" xmlns="http://www.w3.org/2000/svg">
<g clip-path="url(#clip0_103_1357)">
<path d="M0.500419 1C0.500419 0.861929 0.38849 0.75 0.250419 0.75C0.112347 0.75 0.000418493 0.861929 0.000418493 1H0.500419ZM0.250419 2.5H0.000418493C0.000418493 2.63807 0.112347 2.75 0.250419 2.75L0.250419 2.5ZM1.75042 2.75C1.88849 2.75 2.00042 2.63807 2.00042 2.5C2.00042 2.36193 1.88849 2.25 1.75042 2.25V2.75ZM0.000418493 1V2.5H0.500419V1H0.000418493ZM0.250419 2.75H1.75042V2.25H0.250419V2.75Z" fill="#6D7D93"/>
<path d="M5.50028 5C5.50028 5.13807 5.61221 5.25 5.75028 5.25C5.88835 5.25 6.00028 5.13807 6.00028 5H5.50028ZM5.75028 3.5H6.00028C6.00028 3.36193 5.88835 3.25 5.75028 3.25V3.5ZM4.25028 3.25C4.11221 3.25 4.00028 3.36193 4.00028 3.5C4.00028 3.63807 4.11221 3.75 4.25028 3.75V3.25ZM6.00028 5V3.5H5.50028V5H6.00028ZM5.75028 3.25H4.25028V3.75H5.75028V3.25Z" fill="#6D7D93"/>
<path d="M4.88724 2.33337C4.9333 2.46353 5.07616 2.53171 5.20632 2.48565C5.33648 2.43959 5.40466 2.29673 5.3586 2.16657L4.88724 2.33337ZM1.41042 1.40997L1.5817 1.59224L1.58724 1.5867L1.41042 1.40997ZM0.0792243 2.31778C-0.0213955 2.41233 -0.0263177 2.57054 0.0682302 2.67116C0.162778 2.77178 0.320993 2.7767 0.421613 2.68215L0.0792243 2.31778ZM5.92161 3.68216C6.02223 3.58761 6.02715 3.42939 5.93261 3.32877C5.83806 3.22815 5.67984 3.22323 5.57922 3.31778L5.92161 3.68216ZM4.59042 4.58997L4.41914 4.40769L4.4136 4.41323L4.59042 4.58997ZM1.1136 3.66657C1.06754 3.53641 0.924681 3.46823 0.794519 3.51429C0.664358 3.56035 0.596179 3.7032 0.642239 3.83337L1.1136 3.66657ZM5.3586 2.16657C5.21772 1.76845 4.97828 1.41251 4.66263 1.13196L4.33047 1.50568C4.58299 1.73012 4.77454 2.01487 4.88724 2.33337L5.3586 2.16657ZM4.66263 1.13196C4.34699 0.85141 3.96541 0.655391 3.55352 0.562195L3.44318 1.04987C3.77269 1.12442 4.07795 1.28124 4.33047 1.50568L4.66263 1.13196ZM3.55352 0.562195C3.14162 0.468998 2.71283 0.481662 2.30716 0.599005L2.44609 1.07932C2.77063 0.985441 3.11366 0.97531 3.44318 1.04987L3.55352 0.562195ZM2.30716 0.599005C1.90148 0.716347 1.53214 0.934543 1.2336 1.23323L1.58724 1.5867C1.82607 1.34775 2.12154 1.17319 2.44609 1.07932L2.30716 0.599005ZM1.23922 1.22778L0.0792243 2.31778L0.421613 2.68215L1.58161 1.59215L1.23922 1.22778ZM5.57922 3.31778L4.41922 4.40778L4.76161 4.77216L5.92161 3.68216L5.57922 3.31778ZM4.4136 4.41323C4.17476 4.65219 3.87929 4.82674 3.55475 4.92062L3.69368 5.40093C4.09936 5.28359 4.4687 5.06539 4.76724 4.7667L4.4136 4.41323ZM3.55475 4.92062C3.23021 5.01449 2.88718 5.02462 2.55766 4.95007L2.44732 5.43774C2.85921 5.53094 3.288 5.51827 3.69368 5.40093L3.55475 4.92062ZM2.55766 4.95007C2.22815 4.87551 1.92289 4.71869 1.67037 4.49425L1.3382 4.86797C1.65385 5.14852 2.03542 5.34454 2.44732 5.43774L2.55766 4.95007ZM1.67037 4.49425C1.41785 4.26981 1.2263 3.98506 1.1136 3.66657L0.642239 3.83337C0.783119 4.23148 1.02255 4.58742 1.3382 4.86797L1.67037 4.49425Z" fill="#6D7D93"/>
</g>
<defs>
<clipPath id="clip0_103_1357">
<rect width="5.25" height="5.25" fill="white" transform="scale(1.14286)"/>
</clipPath>
</defs>
</svg>
