<svg width="11" height="11" viewBox="0 0 11 11" fill="none" xmlns="http://www.w3.org/2000/svg">
<path d="M5.04141 8.70827C7.06645 8.70827 8.70808 7.06665 8.70808 5.0416C8.70808 3.01656 7.06645 1.37494 5.04141 1.37494C3.01637 1.37494 1.37474 3.01656 1.37474 5.0416C1.37474 7.06665 3.01637 8.70827 5.04141 8.70827Z" stroke="#6D7D93" stroke-width="0.875" stroke-linejoin="round"/>
<path d="M9.30019 9.94921C9.47918 10.1282 9.76938 10.1282 9.94837 9.94921C10.1274 9.77022 10.1274 9.48002 9.94837 9.30102L9.30019 9.94921ZM7.95462 7.30727C7.77563 7.12828 7.48543 7.12828 7.30644 7.30727C7.12745 7.48626 7.12745 7.77647 7.30644 7.95546L7.95462 7.30727ZM9.94837 9.30102L7.95462 7.30727L7.30644 7.95546L9.30019 9.94921L9.94837 9.30102Z" fill="#6D7D93"/>
</svg>
