<svg width="11" height="11" viewBox="0 0 11 11" fill="none" xmlns="http://www.w3.org/2000/svg">
<path d="M3.8818 8.00706C3.74756 8.1413 3.74756 8.35895 3.8818 8.4932C4.01605 8.62744 4.2337 8.62744 4.36794 8.4932L3.8818 8.00706ZM6.87487 5.50013L7.11794 5.74319C7.25219 5.60895 7.25219 5.3913 7.11794 5.25706L6.87487 5.50013ZM4.36794 2.50706C4.2337 2.37281 4.01605 2.37281 3.8818 2.50706C3.74756 2.6413 3.74756 2.85895 3.8818 2.99319L4.36794 2.50706ZM4.36794 8.4932L7.11794 5.74319L6.63181 5.25706L3.8818 8.00706L4.36794 8.4932ZM7.11794 5.25706L4.36794 2.50706L3.8818 2.99319L6.63181 5.74319L7.11794 5.25706Z" fill="#6D7D93"/>
</svg>
