<svg width="19" height="18" viewBox="0 0 19 18" fill="none" xmlns="http://www.w3.org/2000/svg">
<path d="M8.961 0.345975C9.11089 -0.115337 9.76352 -0.115336 9.91341 0.345976L11.798 6.14603C11.865 6.35234 12.0573 6.49202 12.2742 6.49202H18.3727C18.8578 6.49202 19.0594 7.11271 18.667 7.39782L13.7332 10.9824C13.5577 11.11 13.4843 11.336 13.5513 11.5423L15.4359 17.3423C15.5857 17.8036 15.0578 18.1872 14.6653 17.9021L9.73152 14.3175C9.55602 14.19 9.31839 14.19 9.1429 14.3175L4.20907 17.9021C3.81666 18.1872 3.28867 17.8036 3.43855 17.3423L5.32311 11.5423C5.39014 11.336 5.31671 11.11 5.14121 10.9824L0.207389 7.39781C-0.185027 7.11271 0.0166494 6.49202 0.501702 6.49202H6.60024C6.81716 6.49202 7.00942 6.35234 7.07645 6.14603L8.961 0.345975Z" fill="#EF7420"/>
</svg>
