<svg width="11" height="11" viewBox="0 0 11 11" fill="none" xmlns="http://www.w3.org/2000/svg">
<path d="M2.9932 3.88193C2.85895 3.74769 2.6413 3.74769 2.50706 3.88193C2.37282 4.01617 2.37282 4.23383 2.50706 4.36807L2.9932 3.88193ZM5.50013 6.875L5.25706 7.11807C5.3913 7.25231 5.60895 7.25231 5.7432 7.11807L5.50013 6.875ZM8.4932 4.36807C8.62744 4.23383 8.62744 4.01617 8.4932 3.88193C8.35895 3.74769 8.1413 3.74769 8.00706 3.88193L8.4932 4.36807ZM2.50706 4.36807L5.25706 7.11807L5.7432 6.63193L2.9932 3.88193L2.50706 4.36807ZM5.7432 7.11807L8.4932 4.36807L8.00706 3.88193L5.25706 6.63193L5.7432 7.11807Z" fill="#6D7D93"/>
</svg>
