<svg width="4" height="2" viewBox="0 0 4 2" fill="none" xmlns="http://www.w3.org/2000/svg">
<path d="M0.569036 0.097631C0.438861 -0.0325437 0.227806 -0.0325437 0.097631 0.097631C-0.0325437 0.227806 -0.0325437 0.438861 0.097631 0.569036L0.569036 0.097631ZM1.66667 1.66667L1.43096 1.90237C1.56114 2.03254 1.77219 2.03254 1.90237 1.90237L1.66667 1.66667ZM3.2357 0.569036C3.36588 0.438861 3.36588 0.227806 3.2357 0.097631C3.10553 -0.0325437 2.89447 -0.0325437 2.7643 0.097631L3.2357 0.569036ZM0.097631 0.569036L1.43096 1.90237L1.90237 1.43096L0.569036 0.097631L0.097631 0.569036ZM1.90237 1.90237L3.2357 0.569036L2.7643 0.097631L1.43096 1.43096L1.90237 1.90237Z" fill="#6D7D93"/>
</svg>
