<svg width="13" height="13" viewBox="0 0 13 13" fill="none" xmlns="http://www.w3.org/2000/svg">
<path d="M4.58766 9.46246C4.42901 9.62111 4.42901 9.87833 4.58766 10.037C4.74632 10.1956 5.00354 10.1956 5.16219 10.037L4.58766 9.46246ZM8.12492 6.49973L8.41219 6.78699C8.57084 6.62834 8.57084 6.37111 8.41219 6.21246L8.12492 6.49973ZM5.16219 2.96247C5.00354 2.80382 4.74632 2.80382 4.58766 2.96247C4.42901 3.12112 4.42901 3.37834 4.58766 3.53699L5.16219 2.96247ZM5.16219 10.037L8.41219 6.78699L7.83766 6.21246L4.58766 9.46246L5.16219 10.037ZM8.41219 6.21246L5.16219 2.96247L4.58766 3.53699L7.83766 6.78699L8.41219 6.21246Z" fill="#6D7D93"/>
</svg>
