<svg width="4" height="5" viewBox="0 0 4 5" fill="none" xmlns="http://www.w3.org/2000/svg">
<path d="M1.90087 0.227273C1.90087 0.101753 1.79912 -3.09635e-08 1.6736 -3.09635e-08C1.54808 -3.09635e-08 1.44633 0.101753 1.44633 0.227273H1.90087ZM1.51289 4.93343C1.60165 5.02219 1.74555 5.02219 1.83431 4.93343L3.28066 3.48708C3.36942 3.39832 3.36942 3.25442 3.28066 3.16567C3.19191 3.07691 3.048 3.07691 2.95925 3.16567L1.6736 4.45132L0.387951 3.16567C0.299195 3.07691 0.155294 3.07691 0.0665387 3.16567C-0.0222168 3.25442 -0.0222168 3.39832 0.0665387 3.48708L1.51289 4.93343ZM1.44633 0.227273V4.77273H1.90087V0.227273H1.44633Z" fill="#6D7D93"/>
</svg>
