<svg width="11" height="11" viewBox="0 0 11 11" fill="none" xmlns="http://www.w3.org/2000/svg">
<g opacity="0.4" clip-path="url(#clip0_103_1331)">
<path d="M0.736172 8.24968C1.11528 8.90766 1.95603 9.13372 2.61401 8.75461C2.61446 8.75435 2.61489 8.75409 2.61535 8.75383L2.8193 8.63603C3.2043 8.96543 3.64683 9.22088 4.12462 9.38953V9.62468C4.12462 10.3841 4.74024 10.9997 5.49962 10.9997C6.25901 10.9997 6.87462 10.3841 6.87462 9.62468V9.38956C7.35248 9.22062 7.79503 8.96487 8.17995 8.63513L8.38482 8.75338C9.04295 9.13307 9.8843 8.90736 10.264 8.24921C10.6437 7.59108 10.418 6.74973 9.75982 6.37003L9.55632 6.25271C9.64793 5.75425 9.64793 5.24326 9.55632 4.74478L9.75982 4.62746C10.418 4.24776 10.6437 3.40644 10.264 2.74828C9.8843 2.09015 9.04298 1.86442 8.38482 2.24411L8.18087 2.36191C7.79549 2.03292 7.35265 1.77794 6.87462 1.60981V1.37468C6.87462 0.615294 6.25901 -0.000319708 5.49962 -0.000319708C4.74024 -0.000319708 4.12462 0.615294 4.12462 1.37468V1.60981C3.64677 1.77874 3.20421 2.03449 2.8193 2.36423L2.61442 2.24553C1.95627 1.86581 1.11494 2.09155 0.735248 2.74968C0.355555 3.40781 0.581269 4.24916 1.23942 4.62885L1.44292 4.74618C1.35131 5.24464 1.35131 5.75562 1.44292 6.2541L1.23942 6.37143C0.583096 6.75213 0.358111 7.59183 0.736172 8.24968ZM5.49962 3.66635C6.51214 3.66635 7.33295 4.48716 7.33295 5.49968C7.33295 6.5122 6.51214 7.33301 5.49962 7.33301C4.48711 7.33301 3.6663 6.5122 3.6663 5.49968C3.6663 4.48716 4.48711 3.66635 5.49962 3.66635Z" fill="black"/>
</g>
<defs>
<clipPath id="clip0_103_1331">
<rect width="10.5" height="10.5" fill="white" transform="scale(1.04762)"/>
</clipPath>
</defs>
</svg>
