<svg width="13" height="13" viewBox="0 0 13 13" fill="none" xmlns="http://www.w3.org/2000/svg">
<g clip-path="url(#clip0_103_1388)">
<path d="M11.75 6.20832C11.752 6.97824 11.5721 7.73775 11.225 8.42499C10.8134 9.2485 10.1807 9.94117 9.39765 10.4254C8.61464 10.9096 7.71228 11.1663 6.79164 11.1667C6.02171 11.1687 5.2622 10.9888 4.57497 10.6417L1.24997 11.75L2.3583 8.42499C2.01118 7.73775 1.8313 6.97824 1.8333 6.20832C1.83366 5.28768 2.09033 4.38532 2.57456 3.60231C3.05879 2.8193 3.75145 2.18657 4.57497 1.77499C5.2622 1.42786 6.02171 1.24798 6.79164 1.24999H7.0833C8.29917 1.31707 9.44758 1.83026 10.3086 2.69132C11.1697 3.55238 11.6829 4.70078 11.75 5.91665V6.20832Z" stroke="#6D7D93" stroke-width="0.875" stroke-linejoin="round"/>
</g>
<defs>
<clipPath id="clip0_103_1388">
<rect width="12.25" height="12.25" fill="white" transform="scale(1.06122)"/>
</clipPath>
</defs>
</svg>
