<svg width="19" height="18" viewBox="0 0 19 18" fill="none" xmlns="http://www.w3.org/2000/svg">
<path d="M8.96097 0.345975C9.11086 -0.115337 9.76349 -0.115336 9.91338 0.345976L11.7979 6.14603C11.865 6.35234 12.0572 6.49202 12.2741 6.49202H18.3727C18.8577 6.49202 19.0594 7.11271 18.667 7.39782L13.7332 10.9824C13.5577 11.11 13.4842 11.336 13.5513 11.5423L15.4358 17.3423C15.5857 17.8036 15.0577 18.1872 14.6653 17.9021L9.73149 14.3175C9.55599 14.19 9.31836 14.19 9.14286 14.3175L4.20904 17.9021C3.81663 18.1872 3.28863 17.8036 3.43852 17.3423L5.32308 11.5423C5.39011 11.336 5.31668 11.11 5.14118 10.9824L0.207358 7.39781C-0.185057 7.11271 0.0166188 6.49202 0.501671 6.49202H6.60021C6.81713 6.49202 7.00938 6.35234 7.07642 6.14603L8.96097 0.345975Z" fill="#EF7420"/>
</svg>
