<svg width="19" height="18" viewBox="0 0 19 18" fill="none" xmlns="http://www.w3.org/2000/svg">
<path d="M8.96094 0.345975C9.11083 -0.115337 9.76346 -0.115336 9.91335 0.345976L11.7979 6.14603C11.8649 6.35234 12.0572 6.49202 12.2741 6.49202H18.3727C18.8577 6.49202 19.0594 7.11271 18.667 7.39782L13.7331 10.9824C13.5576 11.11 13.4842 11.336 13.5512 11.5423L15.4358 17.3423C15.5857 17.8036 15.0577 18.1872 14.6653 17.9021L9.73146 14.3175C9.55596 14.19 9.31833 14.19 9.14283 14.3175L4.20901 17.9021C3.8166 18.1872 3.2886 17.8036 3.43849 17.3423L5.32305 11.5423C5.39008 11.336 5.31664 11.11 5.14115 10.9824L0.207328 7.39781C-0.185088 7.11271 0.0165882 6.49202 0.501641 6.49202H6.60018C6.8171 6.49202 7.00935 6.35234 7.07639 6.14603L8.96094 0.345975Z" fill="#EF7420"/>
</svg>
