<svg width="11" height="11" viewBox="0 0 11 11" fill="none" xmlns="http://www.w3.org/2000/svg">
<g clip-path="url(#clip0_103_1346)">
<path d="M10.0833 3.25404H10.1292V3.20821V2.74987C10.1292 2.37304 9.97947 2.01165 9.71301 1.74519C9.44656 1.47873 9.08516 1.32904 8.70833 1.32904H2.29167C1.91484 1.32904 1.55344 1.47873 1.28699 1.74519C1.02053 2.01165 0.870833 2.37304 0.870833 2.74987V3.20821V3.25404H0.916667H10.0833ZM0.916667 4.07904H0.870833V4.12487V8.24987C0.870833 8.6267 1.02053 8.98809 1.28699 9.25455C1.55344 9.52101 1.91484 9.67071 2.29167 9.67071H8.70833C9.08516 9.67071 9.44656 9.52101 9.71301 9.25455C9.97947 8.98809 10.1292 8.6267 10.1292 8.24987V4.12487V4.07904H10.0833H0.916667ZM0.704427 1.16263C1.12546 0.741601 1.69629 0.504752 2.29172 0.504039L8.7083 0.504039C9.30372 0.504759 9.87455 0.741607 10.2956 1.16263C10.7166 1.58366 10.9535 2.1545 10.9542 2.74993V8.24982C10.9535 8.84525 10.7166 9.41608 10.2956 9.83711C9.87454 10.2581 9.30371 10.495 8.70828 10.4957H2.29172C1.69629 10.495 1.12546 10.2581 0.704427 9.83711C0.283395 9.41608 0.0465465 8.84525 0.0458333 8.24982L0.0458333 2.7499C0.0465534 2.15448 0.283401 1.58366 0.704427 1.16263ZM8.6625 5.95821C8.6625 6.06761 8.61904 6.17253 8.54168 6.24989C8.46432 6.32725 8.3594 6.37071 8.25 6.37071H2.75C2.6406 6.37071 2.53568 6.32725 2.45832 6.24989C2.38096 6.17253 2.3375 6.06761 2.3375 5.95821C2.3375 5.8488 2.38096 5.74388 2.45832 5.66652C2.53568 5.58917 2.6406 5.54571 2.75 5.54571H8.25C8.3594 5.54571 8.46432 5.58917 8.54168 5.66652C8.61904 5.74388 8.6625 5.8488 8.6625 5.95821ZM6.82917 7.79154C6.82917 7.90094 6.78571 8.00586 6.70835 8.08322C6.63099 8.16058 6.52607 8.20404 6.41667 8.20404H2.75C2.6406 8.20404 2.53568 8.16058 2.45832 8.08322C2.38096 8.00586 2.3375 7.90094 2.3375 7.79154C2.3375 7.68214 2.38096 7.57722 2.45832 7.49986C2.53568 7.4225 2.6406 7.37904 2.75 7.37904H6.41667C6.52607 7.37904 6.63099 7.4225 6.70835 7.49986C6.78571 7.57722 6.82917 7.68214 6.82917 7.79154ZM1.42083 2.29154C1.42083 2.20995 1.44503 2.1302 1.49035 2.06237C1.53568 1.99453 1.6001 1.94166 1.67548 1.91044C1.75085 1.87922 1.83379 1.87105 1.91381 1.88696C1.99383 1.90288 2.06733 1.94217 2.12501 1.99986C2.1827 2.05755 2.22199 2.13105 2.23791 2.21106C2.25382 2.29108 2.24565 2.37402 2.21443 2.4494C2.18321 2.52477 2.13034 2.58919 2.06251 2.63452C1.99467 2.67985 1.91492 2.70404 1.83333 2.70404C1.72393 2.70404 1.61901 2.66058 1.54165 2.58322C1.46429 2.50586 1.42083 2.40094 1.42083 2.29154ZM2.79583 2.29154C2.79583 2.20995 2.82003 2.1302 2.86535 2.06237C2.91068 1.99453 2.9751 1.94166 3.05048 1.91044C3.12585 1.87922 3.20879 1.87105 3.28881 1.88696C3.36883 1.90288 3.44233 1.94217 3.50001 1.99986C3.5577 2.05755 3.59699 2.13105 3.61291 2.21106C3.62882 2.29108 3.62065 2.37402 3.58943 2.4494C3.55821 2.52477 3.50534 2.58919 3.43751 2.63452C3.36967 2.67985 3.28992 2.70404 3.20833 2.70404C3.09893 2.70404 2.99401 2.66058 2.91665 2.58322C2.83929 2.50586 2.79583 2.40094 2.79583 2.29154ZM4.17083 2.29154C4.17083 2.20995 4.19503 2.1302 4.24035 2.06237C4.28568 1.99453 4.3501 1.94166 4.42548 1.91044C4.50085 1.87922 4.58379 1.87105 4.66381 1.88696C4.74383 1.90288 4.81733 1.94217 4.87501 1.99986C4.9327 2.05755 4.97199 2.13105 4.98791 2.21106C5.00382 2.29108 4.99565 2.37402 4.96443 2.4494C4.93321 2.52477 4.88034 2.58919 4.81251 2.63452C4.74467 2.67985 4.66492 2.70404 4.58333 2.70404C4.47393 2.70404 4.36901 2.66058 4.29165 2.58322C4.21429 2.50586 4.17083 2.40094 4.17083 2.29154Z" fill="#6D7D93" stroke="white" stroke-width="0.0875"/>
</g>
<defs>
<clipPath id="clip0_103_1346">
<rect width="10.5" height="10.5" fill="white" transform="scale(1.04762)"/>
</clipPath>
</defs>
</svg>
