<svg width="40" height="40" viewBox="0 0 40 40" fill="none" xmlns="http://www.w3.org/2000/svg">
<path d="M10 32.9167C10.6904 32.9167 11.25 32.3571 11.25 31.6667C11.25 30.9764 10.6904 30.4167 10 30.4167V32.9167ZM11.6667 16.6667V17.9167C12.3571 17.9167 12.9167 17.3571 12.9167 16.6667H11.6667ZM28.3334 16.6667H27.0834C27.0834 17.3571 27.643 17.9167 28.3334 17.9167V16.6667ZM30 30.4167C29.3097 30.4167 28.75 30.9764 28.75 31.6667C28.75 32.3571 29.3097 32.9167 30 32.9167V30.4167ZM10.8334 17.9167H11.6667V15.4167H10.8334V17.9167ZM12.9167 16.6667V15.0001H10.4167V16.6667H12.9167ZM27.0834 15.0001V16.6667H29.5834V15.0001H27.0834ZM28.3334 17.9167H29.1667V15.4167H28.3334V17.9167ZM35.4167 24.1667C35.4167 25.9921 34.8604 27.5664 33.9326 28.6624C33.0216 29.7387 31.7041 30.4167 30 30.4167V32.9167C32.4381 32.9167 34.454 31.9159 35.8407 30.2777C37.2107 28.6593 37.9167 26.4835 37.9167 24.1667H35.4167ZM20 7.91675C23.9121 7.91675 27.0834 11.0881 27.0834 15.0001H29.5834C29.5834 9.70735 25.2928 5.41675 20 5.41675V7.91675ZM12.9167 15.0001C12.9167 11.0881 16.088 7.91675 20 7.91675V5.41675C14.7073 5.41675 10.4167 9.70735 10.4167 15.0001H12.9167ZM29.1667 17.9167C32.6185 17.9167 35.4167 20.715 35.4167 24.1667H37.9167C37.9167 19.3343 33.9992 15.4167 29.1667 15.4167V17.9167ZM4.58337 24.1667C4.58337 20.715 7.38159 17.9167 10.8334 17.9167V15.4167C6.00088 15.4167 2.08337 19.3343 2.08337 24.1667H4.58337ZM10 30.4167C8.29601 30.4167 6.97851 29.7387 6.06748 28.6624C5.13966 27.5664 4.58337 25.9921 4.58337 24.1667H2.08337C2.08337 26.4835 2.78936 28.6593 4.15934 30.2777C5.54611 31.9159 7.56194 32.9167 10 32.9167V30.4167Z" fill="#6A4BFF"/>
<path d="M15 32.5V25.8333C15 25.3731 15.3731 25 15.8333 25H24.1667C24.6269 25 25 25.3731 25 25.8333V32.5C25 32.9602 24.6269 33.3333 24.1667 33.3333H15.8333C15.3731 33.3333 15 32.9602 15 32.5Z" stroke="#6A4BFF" stroke-width="2.5" stroke-linecap="round" stroke-linejoin="round"/>
<path d="M16.6666 25V23.3333C16.6666 21.4924 18.159 20 20 20V20C21.8409 20 23.3333 21.4924 23.3333 23.3333V25" stroke="#6A4BFF" stroke-width="2.5" stroke-linecap="round" stroke-linejoin="round"/>
</svg>
