<svg width="13" height="13" viewBox="0 0 13 13" fill="none" xmlns="http://www.w3.org/2000/svg">
<g clip-path="url(#clip0_103_1390)">
<path d="M12.1817 7.44668L12.1723 7.41269L11.1431 3.70985C10.8442 2.63506 10.1946 1.691 9.29763 1.02776C8.40061 0.364513 7.30764 0.02014 6.19243 0.0493787C5.07723 0.0786174 4.0038 0.47979 3.14277 1.18913C2.28174 1.89847 1.68252 2.87526 1.44037 3.96425L0.643578 7.54737M12.1817 7.44668L0.643578 7.54737M12.1817 7.44668H12.182M12.1817 7.44668H12.182M0.643578 7.54737C0.557075 7.93651 0.559075 8.3401 0.649431 8.72836C0.739787 9.11662 0.916192 9.47963 1.16562 9.79059C1.41505 10.1015 1.73114 10.3525 2.09054 10.525C2.44995 10.6974 2.8435 10.7869 3.24213 10.7869H3.84555H3.8835L3.89105 10.8241C4.01324 11.4258 4.3397 11.9668 4.81512 12.3554C5.29055 12.744 5.88569 12.9563 6.49972 12.9563C7.11374 12.9563 7.70888 12.744 8.18431 12.3554C8.65973 11.9668 8.98619 11.4258 9.10838 10.8241L9.11593 10.7869H9.15388H9.6078C10.0182 10.7869 10.423 10.6921 10.7906 10.5098C11.1583 10.3275 11.4788 10.0626 11.7271 9.73592C11.9755 9.40923 12.1449 9.02954 12.2222 8.62653C12.2973 8.23505 12.2835 7.83185 12.182 7.44668M0.643578 7.54737L12.182 7.44668M2.40706 4.17864L2.40706 4.17864C2.60125 3.30522 3.08183 2.52179 3.7724 1.95287C4.46297 1.38395 5.3239 1.06221 6.21833 1.03877C7.11277 1.01534 7.98936 1.29157 8.70878 1.82355C9.42819 2.35553 9.94913 3.11273 10.1888 3.97478L11.2179 7.67745L2.40706 4.17864ZM2.40706 4.17864L1.61081 7.7623C1.61081 7.76231 1.61081 7.76231 1.61081 7.76231C1.5565 8.00662 1.55775 8.26001 1.61447 8.50378C1.67118 8.74754 1.78192 8.97546 1.9385 9.1707C2.09508 9.36595 2.29351 9.52354 2.51914 9.63184C2.74477 9.74014 2.99185 9.79639 3.24212 9.79643L9.60707 9.79643M2.40706 4.17864L9.60707 9.79643M10.9383 9.13622C10.783 9.34216 10.5818 9.50905 10.3508 9.62366C10.1198 9.73827 9.86516 9.79742 9.60726 9.79643C9.60719 9.79643 9.60713 9.79643 9.60707 9.79643M10.9383 9.13622L9.60707 9.79643M10.9383 9.13622C11.095 8.93155 11.2019 8.69316 11.2504 8.43997C11.299 8.18678 11.2879 7.92575 11.2179 7.67761L10.9383 9.13622ZM4.97438 10.7869H4.90872L4.93061 10.8488C5.04543 11.1736 5.25778 11.4549 5.53862 11.6544C5.81946 11.8539 6.15506 11.9617 6.49952 11.9631L6.49972 11.9167L6.49991 11.9631C6.84437 11.9617 7.17997 11.8539 7.46081 11.6544C7.74165 11.4549 7.954 11.1736 8.06882 10.8488L8.09071 10.7869H8.02505H4.97438Z" fill="#6D7D93" stroke="white" stroke-width="0.0875"/>
</g>
<defs>
<clipPath id="clip0_103_1390">
<rect width="12.25" height="12.25" fill="white" transform="scale(1.06122)"/>
</clipPath>
</defs>
</svg>
