<svg width="58" height="8" viewBox="0 0 58 8" fill="none" xmlns="http://www.w3.org/2000/svg">
<g clip-path="url(#clip0_103_1361)">
<path d="M7.24988 4.94318C7.24988 4.76118 7.10234 4.61364 6.92033 4.61364C6.73833 4.61364 6.59079 4.76118 6.59079 4.94318H7.24988ZM0.988514 6.26136H0.658968H0.988514ZM1.31806 4.94318C1.31806 4.76118 1.17052 4.61364 0.988514 4.61364C0.806511 4.61364 0.658968 4.76118 0.658968 4.94318H1.31806ZM6.59079 4.94318V6.26136H7.24988V4.94318H6.59079ZM6.59079 6.26136C6.59079 6.34876 6.55607 6.43259 6.49426 6.49439L6.96031 6.96043C7.14572 6.77503 7.24988 6.52357 7.24988 6.26136H6.59079ZM6.49426 6.49439C6.43246 6.55619 6.34864 6.59091 6.26124 6.59091V7.25C6.52344 7.25 6.77491 7.14584 6.96031 6.96043L6.49426 6.49439ZM6.26124 6.59091H1.6476V7.25H6.26124V6.59091ZM1.6476 6.59091C1.5602 6.59091 1.47638 6.55619 1.41458 6.49439L0.948533 6.96043C1.13394 7.14584 1.3854 7.25 1.6476 7.25V6.59091ZM1.41458 6.49439C1.35278 6.43259 1.31806 6.34876 1.31806 6.26136H0.658968C0.658968 6.52357 0.763128 6.77503 0.948533 6.96043L1.41458 6.49439ZM1.31806 6.26136V4.94318H0.658968V6.26136H1.31806Z" fill="#6D7D93"/>
<path d="M5.36925 2.86939C5.49794 2.99808 5.7066 2.99808 5.8353 2.86939C5.96399 2.74069 5.96399 2.53204 5.8353 2.40334L5.36925 2.86939ZM3.95455 0.988636L4.18757 0.755613C4.05887 0.626917 3.85022 0.626917 3.72152 0.755613L3.95455 0.988636ZM2.07379 2.40334C1.9451 2.53204 1.9451 2.74069 2.07379 2.86939C2.20249 2.99808 2.41115 2.99808 2.53984 2.86939L2.07379 2.40334ZM5.8353 2.40334L4.18757 0.755613L3.72152 1.22166L5.36925 2.86939L5.8353 2.40334ZM3.72152 0.755613L2.07379 2.40334L2.53984 2.86939L4.18757 1.22166L3.72152 0.755613Z" fill="#6D7D93"/>
<path d="M4.28421 0.988636C4.28421 0.806633 4.13667 0.659091 3.95467 0.659091C3.77267 0.659091 3.62512 0.806633 3.62512 0.988636H4.28421ZM3.62512 4.94318C3.62512 5.12518 3.77267 5.27273 3.95467 5.27273C4.13667 5.27273 4.28421 5.12518 4.28421 4.94318H3.62512ZM3.62512 0.988636V4.94318H4.28421V0.988636H3.62512Z" fill="#6D7D93"/>
</g>
<g clip-path="url(#clip1_103_1361)">
<path d="M23.9468 4.94318C23.9468 4.76118 23.7993 4.61364 23.6173 4.61364C23.4353 4.61364 23.2878 4.76118 23.2878 4.94318H23.9468ZM17.6855 6.26136H17.3559H17.6855ZM18.015 4.94318C18.015 4.76118 17.8675 4.61364 17.6855 4.61364C17.5035 4.61364 17.3559 4.76118 17.3559 4.94318H18.015ZM23.2878 4.94318V6.26136H23.9468V4.94318H23.2878ZM23.2878 6.26136C23.2878 6.34876 23.253 6.43259 23.1912 6.49439L23.6573 6.96043C23.8427 6.77503 23.9468 6.52357 23.9468 6.26136H23.2878ZM23.1912 6.49439C23.1294 6.55619 23.0456 6.59091 22.9582 6.59091V7.25C23.2204 7.25 23.4719 7.14584 23.6573 6.96043L23.1912 6.49439ZM22.9582 6.59091H18.3446V7.25H22.9582V6.59091ZM18.3446 6.59091C18.2572 6.59091 18.1734 6.55619 18.1116 6.49439L17.6455 6.96043C17.8309 7.14584 18.0824 7.25 18.3446 7.25V6.59091ZM18.1116 6.49439C18.0497 6.43259 18.015 6.34876 18.015 6.26136H17.3559C17.3559 6.52357 17.4601 6.77503 17.6455 6.96043L18.1116 6.49439ZM18.015 6.26136V4.94318H17.3559V6.26136H18.015Z" fill="#6D7D93"/>
<path d="M19.2363 3.06249C19.1076 2.9338 18.899 2.9338 18.7703 3.06249C18.6416 3.19119 18.6416 3.39984 18.7703 3.52854L19.2363 3.06249ZM20.651 4.94324L20.418 5.17627C20.5467 5.30496 20.7554 5.30496 20.884 5.17627L20.651 4.94324ZM22.5318 3.52854C22.6605 3.39984 22.6605 3.19119 22.5318 3.06249C22.4031 2.9338 22.1944 2.9338 22.0657 3.06249L22.5318 3.52854ZM18.7703 3.52854L20.418 5.17627L20.884 4.71022L19.2363 3.06249L18.7703 3.52854ZM20.884 5.17627L22.5318 3.52854L22.0657 3.06249L20.418 4.71022L20.884 5.17627Z" fill="#6D7D93"/>
<path d="M20.3216 4.94318C20.3216 5.12518 20.4691 5.27273 20.6511 5.27273C20.8332 5.27273 20.9807 5.12518 20.9807 4.94318H20.3216ZM20.9807 0.988636C20.9807 0.806633 20.8332 0.659091 20.6511 0.659091C20.4691 0.659091 20.3216 0.806633 20.3216 0.988636H20.9807ZM20.9807 4.94318V0.988636H20.3216V4.94318H20.9807Z" fill="#6D7D93"/>
</g>
<path d="M37.6782 1.64773C37.6782 1.46572 37.5306 1.31818 37.3486 1.31818C37.1666 1.31818 37.0191 1.46572 37.0191 1.64773H37.6782ZM37.0191 6.26136C37.0191 6.44337 37.1666 6.59091 37.3486 6.59091C37.5306 6.59091 37.6782 6.44337 37.6782 6.26136H37.0191ZM37.0191 1.64773V6.26136H37.6782V1.64773H37.0191Z" fill="#6D7D93"/>
<path d="M35.0419 3.62494C34.8599 3.62494 34.7124 3.77248 34.7124 3.95448C34.7124 4.13649 34.8599 4.28403 35.0419 4.28403V3.62494ZM39.6555 4.28403C39.8376 4.28403 39.9851 4.13649 39.9851 3.95448C39.9851 3.77248 39.8376 3.62494 39.6555 3.62494V4.28403ZM35.0419 4.28403H39.6555V3.62494H35.0419V4.28403Z" fill="#6D7D93"/>
<g clip-path="url(#clip2_103_1361)">
<path d="M56.6813 2.96585H53.7154C53.3514 2.96585 53.0563 3.26093 53.0563 3.62494V6.59085C53.0563 6.95485 53.3514 7.24994 53.7154 7.24994H56.6813C57.0453 7.24994 57.3404 6.95485 57.3404 6.59085V3.62494C57.3404 3.26093 57.0453 2.96585 56.6813 2.96585Z" stroke="#6D7D93" stroke-width="0.65625" stroke-linejoin="round"/>
<path d="M51.7383 5.27273C51.9203 5.27273 52.0678 5.12518 52.0678 4.94318C52.0678 4.76118 51.9203 4.61364 51.7383 4.61364V5.27273ZM50.7496 4.28409H50.4201H50.7496ZM51.4087 0.659091V0.329545V0.659091ZM54.3746 0.659091V0.329545V0.659091ZM54.7042 1.64773C54.7042 1.82973 54.8517 1.97727 55.0337 1.97727C55.2157 1.97727 55.3633 1.82973 55.3633 1.64773H54.7042ZM51.7383 4.61364H51.4087V5.27273H51.7383V4.61364ZM51.4087 4.61364C51.3213 4.61364 51.2375 4.57892 51.1757 4.51711L50.7097 4.98316C50.8951 5.16857 51.1465 5.27273 51.4087 5.27273V4.61364ZM51.1757 4.51711C51.1139 4.45531 51.0792 4.37149 51.0792 4.28409H50.4201C50.4201 4.54629 50.5242 4.79776 50.7097 4.98316L51.1757 4.51711ZM51.0792 4.28409V1.31818H50.4201V4.28409H51.0792ZM51.0792 1.31818C51.0792 1.23078 51.1139 1.14696 51.1757 1.08516L50.7097 0.61911C50.5242 0.804516 50.4201 1.05598 50.4201 1.31818H51.0792ZM51.1757 1.08516C51.2375 1.02336 51.3213 0.988636 51.4087 0.988636V0.329545C51.1465 0.329545 50.8951 0.433705 50.7097 0.61911L51.1757 1.08516ZM51.4087 0.988636H54.3746V0.329545H51.4087V0.988636ZM54.3746 0.988636C54.462 0.988636 54.5459 1.02336 54.6077 1.08516L55.0737 0.61911C54.8883 0.433705 54.6368 0.329545 54.3746 0.329545V0.988636ZM54.6077 1.08516C54.6695 1.14696 54.7042 1.23078 54.7042 1.31818H55.3633C55.3633 1.05598 55.2591 0.804515 55.0737 0.61911L54.6077 1.08516ZM54.7042 1.31818V1.64773H55.3633V1.31818H54.7042Z" fill="#6D7D93"/>
</g>
<defs>
<clipPath id="clip0_103_1361">
<rect width="7.875" height="7.875" fill="white" transform="scale(1.00433)"/>
</clipPath>
<clipPath id="clip1_103_1361">
<rect width="7.875" height="7.875" fill="white" transform="translate(16.6967) scale(1.00433)"/>
</clipPath>
<clipPath id="clip2_103_1361">
<rect width="7.875" height="7.875" fill="white" transform="translate(50.0909) scale(1.00433)"/>
</clipPath>
</defs>
</svg>
