<svg width="7" height="5" viewBox="0 0 7 5" fill="none" xmlns="http://www.w3.org/2000/svg">
<path d="M0.33871 2.15556C0.151645 2.15556 -3.07638e-08 2.3072 -3.07638e-08 2.49427C-3.07638e-08 2.68133 0.151645 2.83298 0.33871 2.83298V2.15556ZM6.90079 2.73377C7.03307 2.6015 7.03307 2.38704 6.90079 2.25476L4.74526 0.0992274C4.61298 -0.0330471 4.39853 -0.0330471 4.26625 0.0992274C4.13398 0.231502 4.13398 0.445961 4.26625 0.578235L6.18228 2.49427L4.26625 4.4103C4.13398 4.54257 4.13398 4.75703 4.26625 4.88931C4.39853 5.02158 4.61298 5.02158 4.74526 4.88931L6.90079 2.73377ZM0.33871 2.83298H6.66129V2.15556H0.33871V2.83298Z" fill="#6D7D93"/>
</svg>
