<svg width="11" height="135" viewBox="0 0 11 135" fill="none" xmlns="http://www.w3.org/2000/svg">
<g clip-path="url(#clip0_103_1309)">
<path d="M1.7592 0H3.07841C4.04985 0 4.83736 0.787511 4.83736 1.75895V3.07817C4.83736 4.04961 4.04985 4.83712 3.07841 4.83712H1.7592C0.787757 4.83714 0.00024539 4.04963 0.00024539 3.07817V1.75895C0.00024539 0.787511 0.787757 0 1.7592 0Z" fill="#304DAF"/>
<path d="M7.47605 0H8.79527C9.76671 0 10.5542 0.787511 10.5542 1.75895V3.07817C10.5542 4.04961 9.76671 4.83712 8.79527 4.83712H7.47605C6.50461 4.83712 5.7171 4.04961 5.7171 3.07817V1.75895C5.71708 0.787511 6.50459 0 7.47605 0Z" fill="#304DAF"/>
<path d="M1.75895 5.71655H3.07817C4.04961 5.71655 4.83712 6.50406 4.83712 7.4755V8.79472C4.83712 9.76616 4.04961 10.5537 3.07817 10.5537H1.75895C0.787511 10.5537 0 9.76618 0 8.79474V7.47552C0 6.50406 0.787511 5.71655 1.75895 5.71655Z" fill="#304DAF"/>
<path d="M7.47605 5.71655H8.79527C9.76671 5.71655 10.5542 6.50406 10.5542 7.4755V8.79472C10.5542 9.76618 9.76671 10.5537 8.79527 10.5537H7.47605C6.50461 10.5537 5.7171 9.76618 5.7171 8.79474V7.47552C5.71708 6.50406 6.50459 5.71655 7.47605 5.71655Z" fill="#304DAF"/>
</g>
<g opacity="0.4" clip-path="url(#clip1_103_1309)">
<path d="M6.59608 44.8535H9.47198C9.31846 44.4466 9.07995 44.0773 8.77236 43.7699L7.24032 42.237C6.93263 41.9298 6.56315 41.6914 6.15635 41.5378V44.4137C6.15635 44.6566 6.35322 44.8535 6.59608 44.8535Z" fill="#2E2E2E"/>
<path d="M9.66395 45.7329H6.59633C5.86775 45.7329 5.27711 45.1423 5.27711 44.4137V41.3461C5.20631 41.3412 5.13552 41.3355 5.06383 41.3355H3.07841C1.86471 41.337 0.881167 42.3205 0.879724 43.5342V49.6906C0.881167 50.9042 1.86471 51.8878 3.07841 51.8893H7.47579C8.6895 51.8878 9.67304 50.9042 9.6745 49.6905V45.9462C9.6745 45.8745 9.66879 45.8037 9.66395 45.7329Z" fill="#2E2E2E"/>
</g>
<g opacity="0.4" clip-path="url(#clip2_103_1309)">
<path d="M5.27687 85.3094C4.92699 85.3094 4.59145 85.4484 4.34404 85.6958C4.09664 85.9432 3.95765 86.2787 3.95765 86.6286V91.9055C3.95765 92.2554 4.09664 92.5909 4.34404 92.8383C4.59145 93.0857 4.92699 93.2247 5.27687 93.2247C5.62675 93.2247 5.9623 93.0857 6.2097 92.8383C6.4571 92.5909 6.59609 92.2554 6.59609 91.9055V86.6286C6.59609 86.2787 6.4571 85.9432 6.2097 85.6958C5.9623 85.4484 5.62675 85.3094 5.27687 85.3094Z" fill="#2E2E2E"/>
<path d="M9.23453 82.671C8.88465 82.671 8.5491 82.81 8.3017 83.0574C8.0543 83.3048 7.91531 83.6403 7.91531 83.9902V91.9055C7.91531 92.2554 8.0543 92.591 8.3017 92.8384C8.5491 93.0858 8.88465 93.2248 9.23453 93.2248C9.58441 93.2248 9.91995 93.0858 10.1674 92.8384C10.4148 92.591 10.5537 92.2554 10.5537 91.9055V83.9902C10.5537 83.6403 10.4148 83.3048 10.1674 83.0574C9.91995 82.81 9.58441 82.671 9.23453 82.671V82.671Z" fill="#2E2E2E"/>
<path d="M1.31897 87.9479C0.969094 87.9479 0.633546 88.0869 0.386145 88.3343C0.138743 88.5817 -0.00024539 88.9172 -0.00024539 89.2671L-0.00024539 91.9055C-0.00024539 92.2554 0.138743 92.591 0.386145 92.8384C0.633546 93.0858 0.969094 93.2248 1.31897 93.2248C1.66885 93.2248 2.0044 93.0858 2.2518 92.8384C2.4992 92.591 2.63819 92.2554 2.63819 91.9055V89.2671C2.63819 88.9172 2.4992 88.5817 2.2518 88.3343C2.0044 88.0869 1.66885 87.9479 1.31897 87.9479Z" fill="#2E2E2E"/>
</g>
<g opacity="0.4">
<path fill-rule="evenodd" clip-rule="evenodd" d="M1.97907 127.085H8.35529V125.985C8.35529 125.621 8.05998 125.326 7.69569 125.326C7.66855 125.326 7.64145 125.327 7.61452 125.331L1.83378 126.047C1.28762 126.12 0.879724 126.586 0.879724 127.137V127.547C1.15907 127.262 1.54842 127.085 1.97907 127.085ZM9.01512 127.525H1.97929C1.67945 127.525 1.39977 127.645 1.19402 127.854L0.879939 128.175V133.021C0.879939 133.628 1.37213 134.121 1.97929 134.121H9.01512C9.62227 134.121 10.1145 133.628 10.1145 133.021V132.362H7.6959C6.84588 132.362 6.15681 131.673 6.15681 130.823C6.15681 129.973 6.84588 129.283 7.6959 129.283H10.1145V128.624C10.1145 128.017 9.62227 127.525 9.01512 127.525ZM7.69572 129.723C7.08856 129.723 6.59637 130.215 6.59637 130.822C6.59637 131.43 7.08856 131.922 7.69572 131.922H10.1143V129.723H7.69572Z" fill="#2E2E2E"/>
</g>
<defs>
<clipPath id="clip0_103_1309">
<rect width="10.5" height="10.5" fill="white" transform="translate(0.00024539) scale(1.00512)"/>
</clipPath>
<clipPath id="clip1_103_1309">
<rect width="10.5" height="10.5" fill="white" transform="translate(0 41.3355) scale(1.00512)"/>
</clipPath>
<clipPath id="clip2_103_1309">
<rect width="10.5" height="10.5" fill="white" transform="translate(0 82.6711) scale(1.00512)"/>
</clipPath>
</defs>
</svg>
