<svg width="6" height="6" viewBox="0 0 6 6" fill="none" xmlns="http://www.w3.org/2000/svg">
<g clip-path="url(#clip0_103_1377)">
<path d="M4.75028 2.75H1.25028C0.974137 2.75 0.750279 2.97386 0.750279 3.25V5C0.750279 5.27614 0.974137 5.5 1.25028 5.5H4.75028C5.02642 5.5 5.25028 5.27614 5.25028 5V3.25C5.25028 2.97386 5.02642 2.75 4.75028 2.75Z" fill="#6D7D93" stroke="#6D7D93" stroke-width="0.4375" stroke-linejoin="round"/>
<path d="M1.50014 2.75007C1.50014 2.88814 1.61207 3.00007 1.75014 3.00007C1.88821 3.00007 2.00014 2.88814 2.00014 2.75007H1.50014ZM1.75014 1.75007H1.50014H1.75014ZM3.00014 0.50007V0.25007V0.50007ZM4.00014 2.75007C4.00014 2.88814 4.11207 3.00007 4.25014 3.00007C4.38821 3.00007 4.50014 2.88814 4.50014 2.75007H4.00014ZM2.00014 2.75007V1.75007H1.50014V2.75007H2.00014ZM2.00014 1.75007C2.00014 1.48485 2.1055 1.2305 2.29303 1.04296L1.93948 0.68941C1.65817 0.970714 1.50014 1.35224 1.50014 1.75007H2.00014ZM2.29303 1.04296C2.48057 0.855427 2.73492 0.75007 3.00014 0.75007V0.25007C2.60231 0.25007 2.22078 0.408105 1.93948 0.68941L2.29303 1.04296ZM3.00014 0.75007C3.26536 0.75007 3.51971 0.855427 3.70725 1.04296L4.0608 0.68941C3.7795 0.408105 3.39796 0.25007 3.00014 0.25007V0.75007ZM3.70725 1.04296C3.89478 1.2305 4.00014 1.48485 4.00014 1.75007H4.50014C4.50014 1.35224 4.3421 0.970714 4.0608 0.68941L3.70725 1.04296ZM4.00014 1.75007V2.75007H4.50014V1.75007H4.00014Z" fill="#6D7D93"/>
</g>
<defs>
<clipPath id="clip0_103_1377">
<rect width="5.25" height="5.25" fill="white" transform="scale(1.14286)"/>
</clipPath>
</defs>
</svg>
