<svg width="13" height="13" viewBox="0 0 13 13" fill="none" xmlns="http://www.w3.org/2000/svg">
<path d="M4.58766 9.46266C4.42901 9.62131 4.42901 9.87853 4.58766 10.0372C4.74632 10.1958 5.00354 10.1958 5.16219 10.0372L4.58766 9.46266ZM8.12492 6.49992L8.41219 6.78718C8.57084 6.62853 8.57084 6.37131 8.41219 6.21266L8.12492 6.49992ZM5.16219 2.96266C5.00354 2.80401 4.74632 2.80401 4.58766 2.96266C4.42901 3.12131 4.42901 3.37854 4.58766 3.53719L5.16219 2.96266ZM5.16219 10.0372L8.41219 6.78718L7.83766 6.21266L4.58766 9.46266L5.16219 10.0372ZM8.41219 6.21266L5.16219 2.96266L4.58766 3.53719L7.83766 6.78718L8.41219 6.21266Z" fill="#6D7D93"/>
</svg>
