<svg width="26" height="11" viewBox="0 0 26 11" fill="none" xmlns="http://www.w3.org/2000/svg">
<path d="M6.48565 8.30664C6.61695 8.43793 6.82982 8.43793 6.96112 8.30664C7.09242 8.17534 7.09242 7.96247 6.96112 7.83117L6.48565 8.30664ZM4.03373 5.37925L3.796 5.14151C3.6647 5.27281 3.6647 5.48569 3.796 5.61698L4.03373 5.37925ZM6.96112 2.92733C7.09242 2.79603 7.09242 2.58316 6.96112 2.45186C6.82982 2.32056 6.61695 2.32056 6.48565 2.45186L6.96112 2.92733ZM6.96112 7.83117L4.27147 5.14151L3.796 5.61698L6.48565 8.30664L6.96112 7.83117ZM4.27147 5.61698L6.96112 2.92733L6.48565 2.45186L3.796 5.14151L4.27147 5.61698Z" fill="#6D7D93"/>
<g opacity="0.5">
<path d="M19.0374 7.83111C18.9061 7.9624 18.9061 8.17528 19.0374 8.30657C19.1687 8.43787 19.3815 8.43787 19.5128 8.30657L19.0374 7.83111ZM21.9648 5.37919L22.2025 5.61692C22.3338 5.48562 22.3338 5.27275 22.2025 5.14145L21.9648 5.37919ZM19.5128 2.4518C19.3815 2.3205 19.1687 2.3205 19.0374 2.4518C18.9061 2.58309 18.9061 2.79597 19.0374 2.92726L19.5128 2.4518ZM19.5128 8.30657L22.2025 5.61692L21.727 5.14145L19.0374 7.83111L19.5128 8.30657ZM22.2025 5.14145L19.5128 2.4518L19.0374 2.92726L21.727 5.61692L22.2025 5.14145Z" fill="#6D7D93"/>
</g>
</svg>
