<svg width="40" height="40" viewBox="0 0 40 40" fill="none" xmlns="http://www.w3.org/2000/svg">
<path d="M11.6668 16.6667V17.9167C12.3571 17.9167 12.9168 17.3571 12.9168 16.6667H11.6668ZM28.3334 16.6667H27.0834C27.0834 17.3571 27.6431 17.9167 28.3334 17.9167V16.6667ZM10.8334 17.9167H11.6668V15.4167H10.8334V17.9167ZM12.9168 16.6667V15.0001H10.4168V16.6667H12.9168ZM27.0834 15.0001V16.6667H29.5834V15.0001H27.0834ZM28.3334 17.9167H29.1668V15.4167H28.3334V17.9167ZM35.4168 24.1667C35.4168 25.9921 34.8605 27.5664 33.9327 28.6624C33.0216 29.7387 31.7041 30.4167 30.0001 30.4167V32.9167C32.4382 32.9167 34.454 31.9159 35.8408 30.2777C37.2108 28.6593 37.9168 26.4835 37.9168 24.1667H35.4168ZM20.0001 7.91675C23.9121 7.91675 27.0834 11.0881 27.0834 15.0001H29.5834C29.5834 9.70735 25.2928 5.41675 20.0001 5.41675V7.91675ZM12.9168 15.0001C12.9168 11.0881 16.0881 7.91675 20.0001 7.91675V5.41675C14.7074 5.41675 10.4168 9.70735 10.4168 15.0001H12.9168ZM29.1668 17.9167C32.6185 17.9167 35.4168 20.715 35.4168 24.1667H37.9168C37.9168 19.3343 33.9993 15.4167 29.1668 15.4167V17.9167ZM4.58344 24.1667C4.58344 20.715 7.38166 17.9167 10.8334 17.9167V15.4167C6.00094 15.4167 2.08344 19.3343 2.08344 24.1667H4.58344ZM10.0001 30.4167C8.29607 30.4167 6.97857 29.7387 6.06754 28.6624C5.13972 27.5664 4.58344 25.9921 4.58344 24.1667H2.08344C2.08344 26.4835 2.78942 28.6593 4.1594 30.2777C5.54617 31.9159 7.562 32.9167 10.0001 32.9167V30.4167ZM10.0001 32.9167H30.0001V30.4167H10.0001V32.9167Z" fill="#6A4BFF"/>
</svg>
